<mxfile host="app.diagrams.net" modified="2023-10-25T14:54:19.892Z" agent="Mozilla/5.0 (Windows NT 10.0; Win64; x64) AppleWebKit/537.36 (KHTML, like Gecko) Chrome/118.0.0.0 Safari/537.36" etag="p4KXvDyJ_q3GzpH1Ksta" version="22.0.8" type="google">
  <diagram name="Page-1" id="0Aw6p567PycvzkgpM_cw">
    <mxGraphModel grid="1" page="1" gridSize="10" guides="1" tooltips="1" connect="1" arrows="1" fold="1" pageScale="1" pageWidth="1920" pageHeight="1200" math="0" shadow="0">
      <root>
        <object label="" FaceAddrW-1="5" VectAddrW-1="4" id="0">
          <mxCell />
        </object>
        <mxCell id="1" parent="0" />
        <mxCell id="F2LIbIG9BlmV1XGxBTNu-10" value="reg: x0" style="swimlane;fontStyle=0;childLayout=stackLayout;horizontal=1;startSize=26;fillColor=none;horizontalStack=0;resizeParent=1;resizeParentMax=0;resizeLast=0;collapsible=1;marginBottom=0;whiteSpace=wrap;html=1;opacity=90;swimlaneFillColor=none;fillStyle=auto;direction=east;rounded=0;swimlaneLine=1;glass=0;shadow=0;dropTarget=1;" vertex="1" parent="1">
          <mxGeometry x="657" y="148" width="80" height="104" as="geometry" />
        </mxCell>
        <object label="d(9:0)" placeholders="1" id="F2LIbIG9BlmV1XGxBTNu-11">
          <mxCell style="text;strokeColor=none;fillColor=none;align=left;verticalAlign=top;spacingLeft=4;spacingRight=4;overflow=hidden;rotatable=0;points=[[0,0.5],[1,0.5]];portConstraint=eastwest;whiteSpace=wrap;html=1;" vertex="1" parent="F2LIbIG9BlmV1XGxBTNu-10">
            <mxGeometry y="26" width="80" height="26" as="geometry" />
          </mxCell>
        </object>
        <mxCell id="F2LIbIG9BlmV1XGxBTNu-12" value="q(9:0)" style="text;strokeColor=none;fillColor=none;align=right;verticalAlign=top;spacingLeft=4;spacingRight=4;overflow=hidden;rotatable=0;points=[[0,0.5],[1,0.5]];portConstraint=eastwest;whiteSpace=wrap;html=1;" vertex="1" parent="F2LIbIG9BlmV1XGxBTNu-10">
          <mxGeometry y="52" width="80" height="26" as="geometry" />
        </mxCell>
        <mxCell id="txMc73hx2d9rrWc1YmoP-30" style="edgeStyle=orthogonalEdgeStyle;rounded=0;orthogonalLoop=1;jettySize=auto;html=1;exitX=0;exitY=0.5;exitDx=0;exitDy=0;endArrow=none;endFill=0;startArrow=classic;startFill=1;" edge="1" parent="F2LIbIG9BlmV1XGxBTNu-10" source="F2LIbIG9BlmV1XGxBTNu-13">
          <mxGeometry relative="1" as="geometry">
            <mxPoint x="-277" y="91" as="targetPoint" />
          </mxGeometry>
        </mxCell>
        <mxCell id="F2LIbIG9BlmV1XGxBTNu-13" value="load" style="text;strokeColor=none;fillColor=none;align=left;verticalAlign=top;spacingLeft=4;spacingRight=4;overflow=hidden;rotatable=0;points=[[0,0.5],[1,0.5]];portConstraint=eastwest;whiteSpace=wrap;html=1;" vertex="1" parent="F2LIbIG9BlmV1XGxBTNu-10">
          <mxGeometry y="78" width="80" height="26" as="geometry" />
        </mxCell>
        <object label="" placeholders="1" id="Q69YeQZvq4Ri28R2H-Wj-1">
          <mxCell style="fontStyle=1;align=center;verticalAlign=top;childLayout=stackLayout;horizontal=1;horizontalStack=0;resizeParent=1;resizeParentMax=0;resizeLast=0;marginBottom=0;" vertex="1" parent="1">
            <mxGeometry x="80" y="248" width="140" height="186" as="geometry" />
          </mxCell>
        </object>
        <mxCell id="Q69YeQZvq4Ri28R2H-Wj-2" value="&lt;b&gt;&lt;font style=&quot;font-size: 14px;&quot;&gt;VectorROM&lt;/font&gt;&lt;/b&gt;" style="html=1;align=left;spacingLeft=4;verticalAlign=top;strokeColor=none;fillColor=none;whiteSpace=wrap;" vertex="1" parent="Q69YeQZvq4Ri28R2H-Wj-1">
          <mxGeometry width="140" height="40" as="geometry" />
        </mxCell>
        <mxCell id="Q69YeQZvq4Ri28R2H-Wj-3" value="" style="shape=module;jettyWidth=10;jettyHeight=4;" vertex="1" parent="Q69YeQZvq4Ri28R2H-Wj-2">
          <mxGeometry x="1" width="16" height="20" relative="1" as="geometry">
            <mxPoint x="-25" y="9" as="offset" />
          </mxGeometry>
        </mxCell>
        <mxCell id="Q69YeQZvq4Ri28R2H-Wj-4" value="" style="line;strokeWidth=1;fillColor=none;align=left;verticalAlign=middle;spacingTop=-1;spacingLeft=3;spacingRight=3;rotatable=0;labelPosition=right;points=[];portConstraint=eastwest;" vertex="1" parent="Q69YeQZvq4Ri28R2H-Wj-1">
          <mxGeometry y="40" width="140" height="8" as="geometry" />
        </mxCell>
        <mxCell id="Q69YeQZvq4Ri28R2H-Wj-5" value="Input&lt;br&gt;" style="html=1;align=center;spacingLeft=4;verticalAlign=top;strokeColor=none;fillColor=none;whiteSpace=wrap;" vertex="1" parent="Q69YeQZvq4Ri28R2H-Wj-1">
          <mxGeometry y="48" width="140" height="25" as="geometry" />
        </mxCell>
        <object label="addra(%VectAddrW-1%:0)" placeholders="1" id="Q69YeQZvq4Ri28R2H-Wj-6">
          <mxCell style="html=1;align=left;spacingLeft=4;verticalAlign=top;strokeColor=none;fillColor=none;whiteSpace=wrap;" vertex="1" parent="Q69YeQZvq4Ri28R2H-Wj-1">
            <mxGeometry y="73" width="140" height="25" as="geometry" />
          </mxCell>
        </object>
        <mxCell id="Q69YeQZvq4Ri28R2H-Wj-14" value="clka&lt;br&gt;" style="html=1;align=left;spacingLeft=4;verticalAlign=top;strokeColor=none;fillColor=none;whiteSpace=wrap;" vertex="1" parent="Q69YeQZvq4Ri28R2H-Wj-1">
          <mxGeometry y="98" width="140" height="25" as="geometry" />
        </mxCell>
        <mxCell id="Q69YeQZvq4Ri28R2H-Wj-7" value="" style="line;strokeWidth=1;fillColor=none;align=left;verticalAlign=middle;spacingTop=-1;spacingLeft=3;spacingRight=3;rotatable=0;labelPosition=right;points=[];portConstraint=eastwest;" vertex="1" parent="Q69YeQZvq4Ri28R2H-Wj-1">
          <mxGeometry y="123" width="140" height="8" as="geometry" />
        </mxCell>
        <mxCell id="Q69YeQZvq4Ri28R2H-Wj-8" value="Output&lt;br&gt;" style="html=1;align=center;spacingLeft=4;verticalAlign=top;strokeColor=none;fillColor=none;whiteSpace=wrap;" vertex="1" parent="Q69YeQZvq4Ri28R2H-Wj-1">
          <mxGeometry y="131" width="140" height="25" as="geometry" />
        </mxCell>
        <mxCell id="Q69YeQZvq4Ri28R2H-Wj-9" value="douta(9:0)" style="html=1;align=left;spacingLeft=4;verticalAlign=top;strokeColor=none;fillColor=none;whiteSpace=wrap;" vertex="1" parent="Q69YeQZvq4Ri28R2H-Wj-1">
          <mxGeometry y="156" width="140" height="30" as="geometry" />
        </mxCell>
        <mxCell id="Q69YeQZvq4Ri28R2H-Wj-15" value="reg: y0" style="swimlane;fontStyle=0;childLayout=stackLayout;horizontal=1;startSize=26;fillColor=none;horizontalStack=0;resizeParent=1;resizeParentMax=0;resizeLast=0;collapsible=1;marginBottom=0;whiteSpace=wrap;html=1;opacity=90;swimlaneFillColor=none;fillStyle=auto;direction=east;rounded=0;swimlaneLine=1;glass=0;shadow=0;dropTarget=1;" vertex="1" parent="1">
          <mxGeometry x="657" y="258" width="80" height="104" as="geometry" />
        </mxCell>
        <mxCell id="txMc73hx2d9rrWc1YmoP-50" style="edgeStyle=orthogonalEdgeStyle;rounded=0;orthogonalLoop=1;jettySize=auto;html=1;exitX=0;exitY=0.5;exitDx=0;exitDy=0;startArrow=classic;startFill=1;endArrow=oval;endFill=1;" edge="1" parent="Q69YeQZvq4Ri28R2H-Wj-15" source="Q69YeQZvq4Ri28R2H-Wj-16">
          <mxGeometry relative="1" as="geometry">
            <mxPoint x="-297" y="39" as="targetPoint" />
          </mxGeometry>
        </mxCell>
        <mxCell id="Q69YeQZvq4Ri28R2H-Wj-16" value="d(9:0)" style="text;strokeColor=none;fillColor=none;align=left;verticalAlign=top;spacingLeft=4;spacingRight=4;overflow=hidden;rotatable=0;points=[[0,0.5],[1,0.5]];portConstraint=eastwest;whiteSpace=wrap;html=1;" vertex="1" parent="Q69YeQZvq4Ri28R2H-Wj-15">
          <mxGeometry y="26" width="80" height="26" as="geometry" />
        </mxCell>
        <mxCell id="Q69YeQZvq4Ri28R2H-Wj-17" value="q(9:0)" style="text;strokeColor=none;fillColor=none;align=right;verticalAlign=top;spacingLeft=4;spacingRight=4;overflow=hidden;rotatable=0;points=[[0,0.5],[1,0.5]];portConstraint=eastwest;whiteSpace=wrap;html=1;" vertex="1" parent="Q69YeQZvq4Ri28R2H-Wj-15">
          <mxGeometry y="52" width="80" height="26" as="geometry" />
        </mxCell>
        <mxCell id="txMc73hx2d9rrWc1YmoP-32" style="edgeStyle=orthogonalEdgeStyle;rounded=0;orthogonalLoop=1;jettySize=auto;html=1;exitX=0;exitY=0.5;exitDx=0;exitDy=0;endArrow=oval;endFill=1;startArrow=classic;startFill=1;" edge="1" parent="Q69YeQZvq4Ri28R2H-Wj-15" source="Q69YeQZvq4Ri28R2H-Wj-18">
          <mxGeometry relative="1" as="geometry">
            <mxPoint x="-277" y="91" as="targetPoint" />
          </mxGeometry>
        </mxCell>
        <mxCell id="Q69YeQZvq4Ri28R2H-Wj-18" value="load" style="text;strokeColor=none;fillColor=none;align=left;verticalAlign=top;spacingLeft=4;spacingRight=4;overflow=hidden;rotatable=0;points=[[0,0.5],[1,0.5]];portConstraint=eastwest;whiteSpace=wrap;html=1;" vertex="1" parent="Q69YeQZvq4Ri28R2H-Wj-15">
          <mxGeometry y="78" width="80" height="26" as="geometry" />
        </mxCell>
        <mxCell id="Q69YeQZvq4Ri28R2H-Wj-19" value="reg: z0" style="swimlane;fontStyle=0;childLayout=stackLayout;horizontal=1;startSize=26;fillColor=none;horizontalStack=0;resizeParent=1;resizeParentMax=0;resizeLast=0;collapsible=1;marginBottom=0;whiteSpace=wrap;html=1;opacity=90;swimlaneFillColor=none;fillStyle=auto;direction=east;rounded=0;swimlaneLine=1;glass=0;shadow=0;dropTarget=1;" vertex="1" parent="1">
          <mxGeometry x="657" y="368" width="80" height="104" as="geometry" />
        </mxCell>
        <mxCell id="txMc73hx2d9rrWc1YmoP-52" style="edgeStyle=orthogonalEdgeStyle;rounded=0;orthogonalLoop=1;jettySize=auto;html=1;exitX=0;exitY=0.5;exitDx=0;exitDy=0;startArrow=classic;startFill=1;endArrow=oval;endFill=1;" edge="1" parent="Q69YeQZvq4Ri28R2H-Wj-19" source="Q69YeQZvq4Ri28R2H-Wj-20">
          <mxGeometry relative="1" as="geometry">
            <mxPoint x="-297" y="39" as="targetPoint" />
          </mxGeometry>
        </mxCell>
        <mxCell id="Q69YeQZvq4Ri28R2H-Wj-20" value="d(9:0)" style="text;strokeColor=none;fillColor=none;align=left;verticalAlign=top;spacingLeft=4;spacingRight=4;overflow=hidden;rotatable=0;points=[[0,0.5],[1,0.5]];portConstraint=eastwest;whiteSpace=wrap;html=1;" vertex="1" parent="Q69YeQZvq4Ri28R2H-Wj-19">
          <mxGeometry y="26" width="80" height="26" as="geometry" />
        </mxCell>
        <mxCell id="Q69YeQZvq4Ri28R2H-Wj-21" value="q(9:0)" style="text;strokeColor=none;fillColor=none;align=right;verticalAlign=top;spacingLeft=4;spacingRight=4;overflow=hidden;rotatable=0;points=[[0,0.5],[1,0.5]];portConstraint=eastwest;whiteSpace=wrap;html=1;" vertex="1" parent="Q69YeQZvq4Ri28R2H-Wj-19">
          <mxGeometry y="52" width="80" height="26" as="geometry" />
        </mxCell>
        <mxCell id="txMc73hx2d9rrWc1YmoP-33" style="edgeStyle=orthogonalEdgeStyle;rounded=0;orthogonalLoop=1;jettySize=auto;html=1;exitX=0;exitY=0.5;exitDx=0;exitDy=0;endArrow=oval;endFill=1;startArrow=classic;startFill=1;" edge="1" parent="Q69YeQZvq4Ri28R2H-Wj-19" source="Q69YeQZvq4Ri28R2H-Wj-22">
          <mxGeometry relative="1" as="geometry">
            <mxPoint x="-277" y="91" as="targetPoint" />
          </mxGeometry>
        </mxCell>
        <mxCell id="Q69YeQZvq4Ri28R2H-Wj-22" value="load" style="text;strokeColor=none;fillColor=none;align=left;verticalAlign=top;spacingLeft=4;spacingRight=4;overflow=hidden;rotatable=0;points=[[0,0.5],[1,0.5]];portConstraint=eastwest;whiteSpace=wrap;html=1;" vertex="1" parent="Q69YeQZvq4Ri28R2H-Wj-19">
          <mxGeometry y="78" width="80" height="26" as="geometry" />
        </mxCell>
        <mxCell id="Q69YeQZvq4Ri28R2H-Wj-23" value="reg: x1" style="swimlane;fontStyle=0;childLayout=stackLayout;horizontal=1;startSize=26;fillColor=none;horizontalStack=0;resizeParent=1;resizeParentMax=0;resizeLast=0;collapsible=1;marginBottom=0;whiteSpace=wrap;html=1;opacity=90;swimlaneFillColor=none;fillStyle=auto;direction=east;rounded=0;swimlaneLine=1;glass=0;shadow=0;dropTarget=1;" vertex="1" parent="1">
          <mxGeometry x="657" y="478" width="80" height="104" as="geometry" />
        </mxCell>
        <mxCell id="txMc73hx2d9rrWc1YmoP-53" style="edgeStyle=orthogonalEdgeStyle;rounded=0;orthogonalLoop=1;jettySize=auto;html=1;exitX=0;exitY=0.5;exitDx=0;exitDy=0;startArrow=classic;startFill=1;endArrow=oval;endFill=1;" edge="1" parent="Q69YeQZvq4Ri28R2H-Wj-23" source="Q69YeQZvq4Ri28R2H-Wj-24">
          <mxGeometry relative="1" as="geometry">
            <mxPoint x="-297" y="39" as="targetPoint" />
          </mxGeometry>
        </mxCell>
        <mxCell id="Q69YeQZvq4Ri28R2H-Wj-24" value="d(9:0)" style="text;strokeColor=none;fillColor=none;align=left;verticalAlign=top;spacingLeft=4;spacingRight=4;overflow=hidden;rotatable=0;points=[[0,0.5],[1,0.5]];portConstraint=eastwest;whiteSpace=wrap;html=1;" vertex="1" parent="Q69YeQZvq4Ri28R2H-Wj-23">
          <mxGeometry y="26" width="80" height="26" as="geometry" />
        </mxCell>
        <mxCell id="Q69YeQZvq4Ri28R2H-Wj-25" value="q(9:0)" style="text;strokeColor=none;fillColor=none;align=right;verticalAlign=top;spacingLeft=4;spacingRight=4;overflow=hidden;rotatable=0;points=[[0,0.5],[1,0.5]];portConstraint=eastwest;whiteSpace=wrap;html=1;" vertex="1" parent="Q69YeQZvq4Ri28R2H-Wj-23">
          <mxGeometry y="52" width="80" height="26" as="geometry" />
        </mxCell>
        <mxCell id="txMc73hx2d9rrWc1YmoP-34" style="edgeStyle=orthogonalEdgeStyle;rounded=0;orthogonalLoop=1;jettySize=auto;html=1;exitX=0;exitY=0.5;exitDx=0;exitDy=0;endArrow=oval;endFill=1;startArrow=classic;startFill=1;" edge="1" parent="Q69YeQZvq4Ri28R2H-Wj-23" source="Q69YeQZvq4Ri28R2H-Wj-26">
          <mxGeometry relative="1" as="geometry">
            <mxPoint x="-277" y="91" as="targetPoint" />
          </mxGeometry>
        </mxCell>
        <mxCell id="Q69YeQZvq4Ri28R2H-Wj-26" value="load" style="text;strokeColor=none;fillColor=none;align=left;verticalAlign=top;spacingLeft=4;spacingRight=4;overflow=hidden;rotatable=0;points=[[0,0.5],[1,0.5]];portConstraint=eastwest;whiteSpace=wrap;html=1;" vertex="1" parent="Q69YeQZvq4Ri28R2H-Wj-23">
          <mxGeometry y="78" width="80" height="26" as="geometry" />
        </mxCell>
        <mxCell id="Q69YeQZvq4Ri28R2H-Wj-27" value="reg: y1" style="swimlane;fontStyle=0;childLayout=stackLayout;horizontal=1;startSize=26;fillColor=none;horizontalStack=0;resizeParent=1;resizeParentMax=0;resizeLast=0;collapsible=1;marginBottom=0;whiteSpace=wrap;html=1;opacity=90;swimlaneFillColor=none;fillStyle=auto;direction=east;rounded=0;swimlaneLine=1;glass=0;shadow=0;dropTarget=1;" vertex="1" parent="1">
          <mxGeometry x="657" y="588" width="80" height="104" as="geometry" />
        </mxCell>
        <mxCell id="txMc73hx2d9rrWc1YmoP-54" style="edgeStyle=orthogonalEdgeStyle;rounded=0;orthogonalLoop=1;jettySize=auto;html=1;exitX=0;exitY=0.5;exitDx=0;exitDy=0;startArrow=classic;startFill=1;endArrow=oval;endFill=1;" edge="1" parent="Q69YeQZvq4Ri28R2H-Wj-27" source="Q69YeQZvq4Ri28R2H-Wj-28">
          <mxGeometry relative="1" as="geometry">
            <mxPoint x="-297" y="39" as="targetPoint" />
          </mxGeometry>
        </mxCell>
        <mxCell id="Q69YeQZvq4Ri28R2H-Wj-28" value="d(9:0)" style="text;strokeColor=none;fillColor=none;align=left;verticalAlign=top;spacingLeft=4;spacingRight=4;overflow=hidden;rotatable=0;points=[[0,0.5],[1,0.5]];portConstraint=eastwest;whiteSpace=wrap;html=1;" vertex="1" parent="Q69YeQZvq4Ri28R2H-Wj-27">
          <mxGeometry y="26" width="80" height="26" as="geometry" />
        </mxCell>
        <mxCell id="Q69YeQZvq4Ri28R2H-Wj-29" value="q(9:0)" style="text;strokeColor=none;fillColor=none;align=right;verticalAlign=top;spacingLeft=4;spacingRight=4;overflow=hidden;rotatable=0;points=[[0,0.5],[1,0.5]];portConstraint=eastwest;whiteSpace=wrap;html=1;" vertex="1" parent="Q69YeQZvq4Ri28R2H-Wj-27">
          <mxGeometry y="52" width="80" height="26" as="geometry" />
        </mxCell>
        <mxCell id="txMc73hx2d9rrWc1YmoP-35" style="edgeStyle=orthogonalEdgeStyle;rounded=0;orthogonalLoop=1;jettySize=auto;html=1;exitX=0;exitY=0.5;exitDx=0;exitDy=0;endArrow=oval;endFill=1;startArrow=classic;startFill=1;" edge="1" parent="Q69YeQZvq4Ri28R2H-Wj-27" source="Q69YeQZvq4Ri28R2H-Wj-30">
          <mxGeometry relative="1" as="geometry">
            <mxPoint x="-277" y="91" as="targetPoint" />
          </mxGeometry>
        </mxCell>
        <mxCell id="Q69YeQZvq4Ri28R2H-Wj-30" value="load" style="text;strokeColor=none;fillColor=none;align=left;verticalAlign=top;spacingLeft=4;spacingRight=4;overflow=hidden;rotatable=0;points=[[0,0.5],[1,0.5]];portConstraint=eastwest;whiteSpace=wrap;html=1;" vertex="1" parent="Q69YeQZvq4Ri28R2H-Wj-27">
          <mxGeometry y="78" width="80" height="26" as="geometry" />
        </mxCell>
        <mxCell id="Q69YeQZvq4Ri28R2H-Wj-31" value="reg: z1" style="swimlane;fontStyle=0;childLayout=stackLayout;horizontal=1;startSize=26;fillColor=none;horizontalStack=0;resizeParent=1;resizeParentMax=0;resizeLast=0;collapsible=1;marginBottom=0;whiteSpace=wrap;html=1;opacity=90;swimlaneFillColor=none;fillStyle=auto;direction=east;rounded=0;swimlaneLine=1;glass=0;shadow=0;dropTarget=1;" vertex="1" parent="1">
          <mxGeometry x="657" y="698" width="80" height="104" as="geometry" />
        </mxCell>
        <mxCell id="txMc73hx2d9rrWc1YmoP-55" style="edgeStyle=orthogonalEdgeStyle;rounded=0;orthogonalLoop=1;jettySize=auto;html=1;exitX=0;exitY=0.5;exitDx=0;exitDy=0;startArrow=classic;startFill=1;endArrow=oval;endFill=1;" edge="1" parent="Q69YeQZvq4Ri28R2H-Wj-31" source="Q69YeQZvq4Ri28R2H-Wj-32">
          <mxGeometry relative="1" as="geometry">
            <mxPoint x="-297" y="39" as="targetPoint" />
          </mxGeometry>
        </mxCell>
        <mxCell id="Q69YeQZvq4Ri28R2H-Wj-32" value="d(9:0)" style="text;strokeColor=none;fillColor=none;align=left;verticalAlign=top;spacingLeft=4;spacingRight=4;overflow=hidden;rotatable=0;points=[[0,0.5],[1,0.5]];portConstraint=eastwest;whiteSpace=wrap;html=1;" vertex="1" parent="Q69YeQZvq4Ri28R2H-Wj-31">
          <mxGeometry y="26" width="80" height="26" as="geometry" />
        </mxCell>
        <mxCell id="Q69YeQZvq4Ri28R2H-Wj-33" value="q(9:0)" style="text;strokeColor=none;fillColor=none;align=right;verticalAlign=top;spacingLeft=4;spacingRight=4;overflow=hidden;rotatable=0;points=[[0,0.5],[1,0.5]];portConstraint=eastwest;whiteSpace=wrap;html=1;" vertex="1" parent="Q69YeQZvq4Ri28R2H-Wj-31">
          <mxGeometry y="52" width="80" height="26" as="geometry" />
        </mxCell>
        <mxCell id="txMc73hx2d9rrWc1YmoP-36" style="edgeStyle=orthogonalEdgeStyle;rounded=0;orthogonalLoop=1;jettySize=auto;html=1;exitX=0;exitY=0.5;exitDx=0;exitDy=0;endArrow=oval;endFill=1;startArrow=classic;startFill=1;" edge="1" parent="Q69YeQZvq4Ri28R2H-Wj-31" source="Q69YeQZvq4Ri28R2H-Wj-34">
          <mxGeometry relative="1" as="geometry">
            <mxPoint x="-277" y="91" as="targetPoint" />
          </mxGeometry>
        </mxCell>
        <mxCell id="Q69YeQZvq4Ri28R2H-Wj-34" value="load" style="text;strokeColor=none;fillColor=none;align=left;verticalAlign=top;spacingLeft=4;spacingRight=4;overflow=hidden;rotatable=0;points=[[0,0.5],[1,0.5]];portConstraint=eastwest;whiteSpace=wrap;html=1;" vertex="1" parent="Q69YeQZvq4Ri28R2H-Wj-31">
          <mxGeometry y="78" width="80" height="26" as="geometry" />
        </mxCell>
        <mxCell id="Q69YeQZvq4Ri28R2H-Wj-35" value="reg: x2" style="swimlane;fontStyle=0;childLayout=stackLayout;horizontal=1;startSize=26;fillColor=none;horizontalStack=0;resizeParent=1;resizeParentMax=0;resizeLast=0;collapsible=1;marginBottom=0;whiteSpace=wrap;html=1;opacity=90;swimlaneFillColor=none;fillStyle=auto;direction=east;rounded=0;swimlaneLine=1;glass=0;shadow=0;dropTarget=1;" vertex="1" parent="1">
          <mxGeometry x="657" y="808" width="80" height="104" as="geometry" />
        </mxCell>
        <mxCell id="txMc73hx2d9rrWc1YmoP-56" style="edgeStyle=orthogonalEdgeStyle;rounded=0;orthogonalLoop=1;jettySize=auto;html=1;exitX=0;exitY=0.5;exitDx=0;exitDy=0;endArrow=oval;endFill=1;startArrow=classic;startFill=1;" edge="1" parent="Q69YeQZvq4Ri28R2H-Wj-35" source="Q69YeQZvq4Ri28R2H-Wj-36">
          <mxGeometry relative="1" as="geometry">
            <mxPoint x="-297" y="39" as="targetPoint" />
          </mxGeometry>
        </mxCell>
        <mxCell id="Q69YeQZvq4Ri28R2H-Wj-36" value="d(9:0)" style="text;strokeColor=none;fillColor=none;align=left;verticalAlign=top;spacingLeft=4;spacingRight=4;overflow=hidden;rotatable=0;points=[[0,0.5],[1,0.5]];portConstraint=eastwest;whiteSpace=wrap;html=1;" vertex="1" parent="Q69YeQZvq4Ri28R2H-Wj-35">
          <mxGeometry y="26" width="80" height="26" as="geometry" />
        </mxCell>
        <mxCell id="Q69YeQZvq4Ri28R2H-Wj-37" value="q(9:0)" style="text;strokeColor=none;fillColor=none;align=right;verticalAlign=top;spacingLeft=4;spacingRight=4;overflow=hidden;rotatable=0;points=[[0,0.5],[1,0.5]];portConstraint=eastwest;whiteSpace=wrap;html=1;" vertex="1" parent="Q69YeQZvq4Ri28R2H-Wj-35">
          <mxGeometry y="52" width="80" height="26" as="geometry" />
        </mxCell>
        <mxCell id="txMc73hx2d9rrWc1YmoP-37" style="edgeStyle=orthogonalEdgeStyle;rounded=0;orthogonalLoop=1;jettySize=auto;html=1;exitX=0;exitY=0.5;exitDx=0;exitDy=0;startArrow=classic;startFill=1;endArrow=oval;endFill=1;" edge="1" parent="Q69YeQZvq4Ri28R2H-Wj-35" source="Q69YeQZvq4Ri28R2H-Wj-38">
          <mxGeometry relative="1" as="geometry">
            <mxPoint x="-277" y="91" as="targetPoint" />
          </mxGeometry>
        </mxCell>
        <mxCell id="Q69YeQZvq4Ri28R2H-Wj-38" value="load" style="text;strokeColor=none;fillColor=none;align=left;verticalAlign=top;spacingLeft=4;spacingRight=4;overflow=hidden;rotatable=0;points=[[0,0.5],[1,0.5]];portConstraint=eastwest;whiteSpace=wrap;html=1;" vertex="1" parent="Q69YeQZvq4Ri28R2H-Wj-35">
          <mxGeometry y="78" width="80" height="26" as="geometry" />
        </mxCell>
        <mxCell id="Q69YeQZvq4Ri28R2H-Wj-39" value="reg: y2" style="swimlane;fontStyle=0;childLayout=stackLayout;horizontal=1;startSize=26;fillColor=none;horizontalStack=0;resizeParent=1;resizeParentMax=0;resizeLast=0;collapsible=1;marginBottom=0;whiteSpace=wrap;html=1;opacity=90;swimlaneFillColor=none;fillStyle=auto;direction=east;rounded=0;swimlaneLine=1;glass=0;shadow=0;dropTarget=1;" vertex="1" parent="1">
          <mxGeometry x="657" y="918" width="80" height="104" as="geometry" />
        </mxCell>
        <mxCell id="txMc73hx2d9rrWc1YmoP-57" style="edgeStyle=orthogonalEdgeStyle;rounded=0;orthogonalLoop=1;jettySize=auto;html=1;exitX=0;exitY=0.5;exitDx=0;exitDy=0;startArrow=classic;startFill=1;endArrow=oval;endFill=1;" edge="1" parent="Q69YeQZvq4Ri28R2H-Wj-39" source="Q69YeQZvq4Ri28R2H-Wj-40">
          <mxGeometry relative="1" as="geometry">
            <mxPoint x="-297" y="39" as="targetPoint" />
          </mxGeometry>
        </mxCell>
        <mxCell id="Q69YeQZvq4Ri28R2H-Wj-40" value="d(9:0)" style="text;strokeColor=none;fillColor=none;align=left;verticalAlign=top;spacingLeft=4;spacingRight=4;overflow=hidden;rotatable=0;points=[[0,0.5],[1,0.5]];portConstraint=eastwest;whiteSpace=wrap;html=1;" vertex="1" parent="Q69YeQZvq4Ri28R2H-Wj-39">
          <mxGeometry y="26" width="80" height="26" as="geometry" />
        </mxCell>
        <mxCell id="Q69YeQZvq4Ri28R2H-Wj-41" value="q(9:0)" style="text;strokeColor=none;fillColor=none;align=right;verticalAlign=top;spacingLeft=4;spacingRight=4;overflow=hidden;rotatable=0;points=[[0,0.5],[1,0.5]];portConstraint=eastwest;whiteSpace=wrap;html=1;" vertex="1" parent="Q69YeQZvq4Ri28R2H-Wj-39">
          <mxGeometry y="52" width="80" height="26" as="geometry" />
        </mxCell>
        <mxCell id="txMc73hx2d9rrWc1YmoP-38" style="edgeStyle=orthogonalEdgeStyle;rounded=0;orthogonalLoop=1;jettySize=auto;html=1;exitX=0;exitY=0.5;exitDx=0;exitDy=0;endArrow=oval;endFill=1;startArrow=classic;startFill=1;" edge="1" parent="Q69YeQZvq4Ri28R2H-Wj-39" source="Q69YeQZvq4Ri28R2H-Wj-42">
          <mxGeometry relative="1" as="geometry">
            <mxPoint x="-277" y="91" as="targetPoint" />
          </mxGeometry>
        </mxCell>
        <mxCell id="Q69YeQZvq4Ri28R2H-Wj-42" value="load" style="text;strokeColor=none;fillColor=none;align=left;verticalAlign=top;spacingLeft=4;spacingRight=4;overflow=hidden;rotatable=0;points=[[0,0.5],[1,0.5]];portConstraint=eastwest;whiteSpace=wrap;html=1;" vertex="1" parent="Q69YeQZvq4Ri28R2H-Wj-39">
          <mxGeometry y="78" width="80" height="26" as="geometry" />
        </mxCell>
        <mxCell id="Q69YeQZvq4Ri28R2H-Wj-43" value="reg: z2" style="swimlane;fontStyle=0;childLayout=stackLayout;horizontal=1;startSize=26;fillColor=none;horizontalStack=0;resizeParent=1;resizeParentMax=0;resizeLast=0;collapsible=1;marginBottom=0;whiteSpace=wrap;html=1;opacity=90;swimlaneFillColor=none;fillStyle=auto;direction=east;rounded=0;swimlaneLine=1;glass=0;shadow=0;dropTarget=1;" vertex="1" parent="1">
          <mxGeometry x="657" y="1028" width="80" height="104" as="geometry" />
        </mxCell>
        <mxCell id="txMc73hx2d9rrWc1YmoP-51" style="edgeStyle=orthogonalEdgeStyle;rounded=0;orthogonalLoop=1;jettySize=auto;html=1;exitX=0;exitY=0.5;exitDx=0;exitDy=0;startArrow=classic;startFill=1;endArrow=oval;endFill=1;" edge="1" parent="Q69YeQZvq4Ri28R2H-Wj-43" source="Q69YeQZvq4Ri28R2H-Wj-44">
          <mxGeometry relative="1" as="geometry">
            <mxPoint x="-297" y="-610" as="targetPoint" />
          </mxGeometry>
        </mxCell>
        <mxCell id="Q69YeQZvq4Ri28R2H-Wj-44" value="d(9:0)" style="text;strokeColor=none;fillColor=none;align=left;verticalAlign=top;spacingLeft=4;spacingRight=4;overflow=hidden;rotatable=0;points=[[0,0.5],[1,0.5]];portConstraint=eastwest;whiteSpace=wrap;html=1;" vertex="1" parent="Q69YeQZvq4Ri28R2H-Wj-43">
          <mxGeometry y="26" width="80" height="26" as="geometry" />
        </mxCell>
        <mxCell id="Q69YeQZvq4Ri28R2H-Wj-45" value="q(9:0)" style="text;strokeColor=none;fillColor=none;align=right;verticalAlign=top;spacingLeft=4;spacingRight=4;overflow=hidden;rotatable=0;points=[[0,0.5],[1,0.5]];portConstraint=eastwest;whiteSpace=wrap;html=1;" vertex="1" parent="Q69YeQZvq4Ri28R2H-Wj-43">
          <mxGeometry y="52" width="80" height="26" as="geometry" />
        </mxCell>
        <mxCell id="Q69YeQZvq4Ri28R2H-Wj-46" value="load" style="text;strokeColor=none;fillColor=none;align=left;verticalAlign=top;spacingLeft=4;spacingRight=4;overflow=hidden;rotatable=0;points=[[0,0.5],[1,0.5]];portConstraint=eastwest;whiteSpace=wrap;html=1;" vertex="1" parent="Q69YeQZvq4Ri28R2H-Wj-43">
          <mxGeometry y="78" width="80" height="26" as="geometry" />
        </mxCell>
        <object label="" placeholders="1" id="Q69YeQZvq4Ri28R2H-Wj-47">
          <mxCell style="fontStyle=1;align=center;verticalAlign=top;childLayout=stackLayout;horizontal=1;horizontalStack=0;resizeParent=1;resizeParentMax=0;resizeLast=0;marginBottom=0;" vertex="1" parent="1">
            <mxGeometry x="80" y="448" width="140" height="186" as="geometry" />
          </mxCell>
        </object>
        <mxCell id="Q69YeQZvq4Ri28R2H-Wj-48" value="&lt;span style=&quot;font-size: 14px;&quot;&gt;&lt;b&gt;FaceROM&lt;br&gt;&lt;/b&gt;&lt;/span&gt;" style="html=1;align=left;spacingLeft=4;verticalAlign=top;strokeColor=none;fillColor=none;whiteSpace=wrap;" vertex="1" parent="Q69YeQZvq4Ri28R2H-Wj-47">
          <mxGeometry width="140" height="40" as="geometry" />
        </mxCell>
        <mxCell id="Q69YeQZvq4Ri28R2H-Wj-49" value="" style="shape=module;jettyWidth=10;jettyHeight=4;" vertex="1" parent="Q69YeQZvq4Ri28R2H-Wj-48">
          <mxGeometry x="1" width="16" height="20" relative="1" as="geometry">
            <mxPoint x="-25" y="9" as="offset" />
          </mxGeometry>
        </mxCell>
        <mxCell id="Q69YeQZvq4Ri28R2H-Wj-50" value="" style="line;strokeWidth=1;fillColor=none;align=left;verticalAlign=middle;spacingTop=-1;spacingLeft=3;spacingRight=3;rotatable=0;labelPosition=right;points=[];portConstraint=eastwest;" vertex="1" parent="Q69YeQZvq4Ri28R2H-Wj-47">
          <mxGeometry y="40" width="140" height="8" as="geometry" />
        </mxCell>
        <mxCell id="Q69YeQZvq4Ri28R2H-Wj-51" value="Input&lt;br&gt;" style="html=1;align=center;spacingLeft=4;verticalAlign=top;strokeColor=none;fillColor=none;whiteSpace=wrap;" vertex="1" parent="Q69YeQZvq4Ri28R2H-Wj-47">
          <mxGeometry y="48" width="140" height="25" as="geometry" />
        </mxCell>
        <object label="addra(%FaceAddrW-1%:0)" placeholders="1" id="Q69YeQZvq4Ri28R2H-Wj-52">
          <mxCell style="html=1;align=left;spacingLeft=4;verticalAlign=top;strokeColor=none;fillColor=none;whiteSpace=wrap;" vertex="1" parent="Q69YeQZvq4Ri28R2H-Wj-47">
            <mxGeometry y="73" width="140" height="25" as="geometry" />
          </mxCell>
        </object>
        <mxCell id="Q69YeQZvq4Ri28R2H-Wj-53" value="clka&lt;br&gt;" style="html=1;align=left;spacingLeft=4;verticalAlign=top;strokeColor=none;fillColor=none;whiteSpace=wrap;" vertex="1" parent="Q69YeQZvq4Ri28R2H-Wj-47">
          <mxGeometry y="98" width="140" height="25" as="geometry" />
        </mxCell>
        <mxCell id="Q69YeQZvq4Ri28R2H-Wj-54" value="" style="line;strokeWidth=1;fillColor=none;align=left;verticalAlign=middle;spacingTop=-1;spacingLeft=3;spacingRight=3;rotatable=0;labelPosition=right;points=[];portConstraint=eastwest;" vertex="1" parent="Q69YeQZvq4Ri28R2H-Wj-47">
          <mxGeometry y="123" width="140" height="8" as="geometry" />
        </mxCell>
        <mxCell id="Q69YeQZvq4Ri28R2H-Wj-55" value="Output&lt;br&gt;" style="html=1;align=center;spacingLeft=4;verticalAlign=top;strokeColor=none;fillColor=none;whiteSpace=wrap;" vertex="1" parent="Q69YeQZvq4Ri28R2H-Wj-47">
          <mxGeometry y="131" width="140" height="25" as="geometry" />
        </mxCell>
        <mxCell id="Q69YeQZvq4Ri28R2H-Wj-56" value="douta(7:0)" style="html=1;align=left;spacingLeft=4;verticalAlign=top;strokeColor=none;fillColor=none;whiteSpace=wrap;" vertex="1" parent="Q69YeQZvq4Ri28R2H-Wj-47">
          <mxGeometry y="156" width="140" height="30" as="geometry" />
        </mxCell>
        <object label="" placeholders="1" id="txMc73hx2d9rrWc1YmoP-1">
          <mxCell style="fontStyle=1;align=center;verticalAlign=top;childLayout=stackLayout;horizontal=1;horizontalStack=0;resizeParent=1;resizeParentMax=0;resizeLast=0;marginBottom=0;" vertex="1" parent="1">
            <mxGeometry x="80" y="698" width="140" height="326" as="geometry" />
          </mxCell>
        </object>
        <mxCell id="txMc73hx2d9rrWc1YmoP-2" value="&lt;span style=&quot;font-size: 14px;&quot;&gt;&lt;b&gt;LoadVector&lt;br&gt;&lt;/b&gt;&lt;/span&gt;" style="html=1;align=left;spacingLeft=4;verticalAlign=top;strokeColor=none;fillColor=none;whiteSpace=wrap;" vertex="1" parent="txMc73hx2d9rrWc1YmoP-1">
          <mxGeometry width="140" height="40" as="geometry" />
        </mxCell>
        <mxCell id="txMc73hx2d9rrWc1YmoP-3" value="" style="shape=module;jettyWidth=10;jettyHeight=4;" vertex="1" parent="txMc73hx2d9rrWc1YmoP-2">
          <mxGeometry x="1" width="16" height="20" relative="1" as="geometry">
            <mxPoint x="-25" y="9" as="offset" />
          </mxGeometry>
        </mxCell>
        <mxCell id="txMc73hx2d9rrWc1YmoP-4" value="" style="line;strokeWidth=1;fillColor=none;align=left;verticalAlign=middle;spacingTop=-1;spacingLeft=3;spacingRight=3;rotatable=0;labelPosition=right;points=[];portConstraint=eastwest;" vertex="1" parent="txMc73hx2d9rrWc1YmoP-1">
          <mxGeometry y="40" width="140" height="8" as="geometry" />
        </mxCell>
        <mxCell id="txMc73hx2d9rrWc1YmoP-5" value="Input&lt;br&gt;" style="html=1;align=center;spacingLeft=4;verticalAlign=top;strokeColor=none;fillColor=none;whiteSpace=wrap;" vertex="1" parent="txMc73hx2d9rrWc1YmoP-1">
          <mxGeometry y="48" width="140" height="25" as="geometry" />
        </mxCell>
        <object label="dataFace(7:0)" placeholders="1" id="txMc73hx2d9rrWc1YmoP-6">
          <mxCell style="html=1;align=left;spacingLeft=4;verticalAlign=top;strokeColor=none;fillColor=none;whiteSpace=wrap;" vertex="1" parent="txMc73hx2d9rrWc1YmoP-1">
            <mxGeometry y="73" width="140" height="25" as="geometry" />
          </mxCell>
        </object>
        <mxCell id="i_12rd08PPNEyvvEY1AS-2" style="edgeStyle=orthogonalEdgeStyle;rounded=0;orthogonalLoop=1;jettySize=auto;html=1;exitX=0;exitY=0.5;exitDx=0;exitDy=0;startArrow=classic;startFill=1;endArrow=none;endFill=0;" edge="1" parent="txMc73hx2d9rrWc1YmoP-1" source="UioZOW-6NA5um3ol1BNL-2">
          <mxGeometry relative="1" as="geometry">
            <mxPoint x="-70" y="112" as="targetPoint" />
          </mxGeometry>
        </mxCell>
        <mxCell id="UioZOW-6NA5um3ol1BNL-2" value="go&lt;br&gt;" style="html=1;align=left;spacingLeft=4;verticalAlign=top;strokeColor=none;fillColor=none;whiteSpace=wrap;" vertex="1" parent="txMc73hx2d9rrWc1YmoP-1">
          <mxGeometry y="98" width="140" height="25" as="geometry" />
        </mxCell>
        <mxCell id="i_12rd08PPNEyvvEY1AS-1" style="edgeStyle=orthogonalEdgeStyle;rounded=0;orthogonalLoop=1;jettySize=auto;html=1;exitX=0;exitY=0.5;exitDx=0;exitDy=0;startArrow=classic;startFill=1;endArrow=none;endFill=0;" edge="1" parent="txMc73hx2d9rrWc1YmoP-1" source="UioZOW-6NA5um3ol1BNL-3">
          <mxGeometry relative="1" as="geometry">
            <mxPoint x="-70" y="136" as="targetPoint" />
          </mxGeometry>
        </mxCell>
        <mxCell id="UioZOW-6NA5um3ol1BNL-3" value="gonext" style="html=1;align=left;spacingLeft=4;verticalAlign=top;strokeColor=none;fillColor=none;whiteSpace=wrap;" vertex="1" parent="txMc73hx2d9rrWc1YmoP-1">
          <mxGeometry y="123" width="140" height="25" as="geometry" />
        </mxCell>
        <mxCell id="txMc73hx2d9rrWc1YmoP-7" value="clk / clr" style="html=1;align=left;spacingLeft=4;verticalAlign=top;strokeColor=none;fillColor=none;whiteSpace=wrap;" vertex="1" parent="txMc73hx2d9rrWc1YmoP-1">
          <mxGeometry y="148" width="140" height="25" as="geometry" />
        </mxCell>
        <mxCell id="txMc73hx2d9rrWc1YmoP-8" value="" style="line;strokeWidth=1;fillColor=none;align=left;verticalAlign=middle;spacingTop=-1;spacingLeft=3;spacingRight=3;rotatable=0;labelPosition=right;points=[];portConstraint=eastwest;" vertex="1" parent="txMc73hx2d9rrWc1YmoP-1">
          <mxGeometry y="173" width="140" height="8" as="geometry" />
        </mxCell>
        <mxCell id="txMc73hx2d9rrWc1YmoP-9" value="Output&lt;br&gt;" style="html=1;align=center;spacingLeft=4;verticalAlign=top;strokeColor=none;fillColor=none;whiteSpace=wrap;" vertex="1" parent="txMc73hx2d9rrWc1YmoP-1">
          <mxGeometry y="181" width="140" height="25" as="geometry" />
        </mxCell>
        <object label="addrFace(%FaceAddrW-1%:0)" placeholders="1" id="txMc73hx2d9rrWc1YmoP-59">
          <mxCell style="html=1;align=left;spacingLeft=4;verticalAlign=top;strokeColor=none;fillColor=none;whiteSpace=wrap;" vertex="1" parent="txMc73hx2d9rrWc1YmoP-1">
            <mxGeometry y="206" width="140" height="30" as="geometry" />
          </mxCell>
        </object>
        <object label="addrVect(%VectAddrW-1%:0)" placeholders="1" id="txMc73hx2d9rrWc1YmoP-10">
          <mxCell style="html=1;align=left;spacingLeft=4;verticalAlign=top;strokeColor=none;fillColor=none;whiteSpace=wrap;" vertex="1" parent="txMc73hx2d9rrWc1YmoP-1">
            <mxGeometry y="236" width="140" height="30" as="geometry" />
          </mxCell>
        </object>
        <mxCell id="txMc73hx2d9rrWc1YmoP-29" style="edgeStyle=orthogonalEdgeStyle;rounded=0;orthogonalLoop=1;jettySize=auto;html=1;endArrow=none;endFill=0;startArrow=oval;startFill=1;" edge="1" parent="txMc73hx2d9rrWc1YmoP-1">
          <mxGeometry relative="1" as="geometry">
            <mxPoint x="300" y="-460" as="targetPoint" />
            <mxPoint x="300" y="282" as="sourcePoint" />
          </mxGeometry>
        </mxCell>
        <object label="load(8:0)" placeholders="1" id="txMc73hx2d9rrWc1YmoP-27">
          <mxCell style="html=1;align=left;spacingLeft=4;verticalAlign=top;strokeColor=none;fillColor=none;whiteSpace=wrap;" vertex="1" parent="txMc73hx2d9rrWc1YmoP-1">
            <mxGeometry y="266" width="140" height="30" as="geometry" />
          </mxCell>
        </object>
        <mxCell id="UioZOW-6NA5um3ol1BNL-1" value="ready" style="html=1;align=left;spacingLeft=4;verticalAlign=top;strokeColor=none;fillColor=none;whiteSpace=wrap;" vertex="1" parent="txMc73hx2d9rrWc1YmoP-1">
          <mxGeometry y="296" width="140" height="30" as="geometry" />
        </mxCell>
        <mxCell id="txMc73hx2d9rrWc1YmoP-11" style="edgeStyle=orthogonalEdgeStyle;rounded=0;orthogonalLoop=1;jettySize=auto;html=1;exitX=1;exitY=0.5;exitDx=0;exitDy=0;entryX=1;entryY=0.5;entryDx=0;entryDy=0;" edge="1" parent="1" source="txMc73hx2d9rrWc1YmoP-10" target="Q69YeQZvq4Ri28R2H-Wj-6">
          <mxGeometry relative="1" as="geometry">
            <Array as="points">
              <mxPoint x="330" y="899" />
              <mxPoint x="330" y="334" />
            </Array>
          </mxGeometry>
        </mxCell>
        <object label="addrVect(%VectAddrW-1%:0)" placeholders="1" id="txMc73hx2d9rrWc1YmoP-12">
          <mxCell style="text;html=1;strokeColor=none;fillColor=none;align=center;verticalAlign=middle;whiteSpace=wrap;rounded=0;" vertex="1" parent="1">
            <mxGeometry x="240" y="311" width="60" height="30" as="geometry" />
          </mxCell>
        </object>
        <object label="addrVect(%VectAddrW-1%:0)" placeholders="1" id="txMc73hx2d9rrWc1YmoP-13">
          <mxCell style="text;html=1;strokeColor=none;fillColor=none;align=center;verticalAlign=middle;whiteSpace=wrap;rounded=0;" vertex="1" parent="1">
            <mxGeometry x="234" y="876" width="60" height="30" as="geometry" />
          </mxCell>
        </object>
        <object label="dataVect(9:0)" placeholders="1" id="txMc73hx2d9rrWc1YmoP-15">
          <mxCell style="text;html=1;strokeColor=none;fillColor=none;align=center;verticalAlign=middle;whiteSpace=wrap;rounded=0;" vertex="1" parent="1">
            <mxGeometry x="232" y="396" width="60" height="30" as="geometry" />
          </mxCell>
        </object>
        <object label="dataVect(9:0)" placeholders="1" id="txMc73hx2d9rrWc1YmoP-16">
          <mxCell style="text;html=1;strokeColor=none;fillColor=none;align=center;verticalAlign=middle;whiteSpace=wrap;rounded=0;" vertex="1" parent="1">
            <mxGeometry x="580" y="163" width="60" height="30" as="geometry" />
          </mxCell>
        </object>
        <object label="dataVect(9:0)" placeholders="1" id="txMc73hx2d9rrWc1YmoP-17">
          <mxCell style="text;html=1;strokeColor=none;fillColor=none;align=center;verticalAlign=middle;whiteSpace=wrap;rounded=0;" vertex="1" parent="1">
            <mxGeometry x="580" y="273" width="60" height="30" as="geometry" />
          </mxCell>
        </object>
        <object label="dataVect(9:0)" placeholders="1" id="txMc73hx2d9rrWc1YmoP-18">
          <mxCell style="text;html=1;strokeColor=none;fillColor=none;align=center;verticalAlign=middle;whiteSpace=wrap;rounded=0;" vertex="1" parent="1">
            <mxGeometry x="580" y="383" width="60" height="30" as="geometry" />
          </mxCell>
        </object>
        <object label="dataVect(9:0)" placeholders="1" id="txMc73hx2d9rrWc1YmoP-20">
          <mxCell style="text;html=1;strokeColor=none;fillColor=none;align=center;verticalAlign=middle;whiteSpace=wrap;rounded=0;" vertex="1" parent="1">
            <mxGeometry x="580" y="713" width="60" height="30" as="geometry" />
          </mxCell>
        </object>
        <object label="dataVect(9:0)" placeholders="1" id="txMc73hx2d9rrWc1YmoP-21">
          <mxCell style="text;html=1;strokeColor=none;fillColor=none;align=center;verticalAlign=middle;whiteSpace=wrap;rounded=0;" vertex="1" parent="1">
            <mxGeometry x="580" y="601" width="60" height="30" as="geometry" />
          </mxCell>
        </object>
        <object label="dataVect(9:0)" placeholders="1" id="txMc73hx2d9rrWc1YmoP-23">
          <mxCell style="text;html=1;strokeColor=none;fillColor=none;align=center;verticalAlign=middle;whiteSpace=wrap;rounded=0;" vertex="1" parent="1">
            <mxGeometry x="580" y="821" width="60" height="30" as="geometry" />
          </mxCell>
        </object>
        <object label="dataVect(9:0)" placeholders="1" id="txMc73hx2d9rrWc1YmoP-24">
          <mxCell style="text;html=1;strokeColor=none;fillColor=none;align=center;verticalAlign=middle;whiteSpace=wrap;rounded=0;" vertex="1" parent="1">
            <mxGeometry x="580" y="492" width="60" height="30" as="geometry" />
          </mxCell>
        </object>
        <object label="dataVect(9:0)" placeholders="1" id="txMc73hx2d9rrWc1YmoP-25">
          <mxCell style="text;html=1;strokeColor=none;fillColor=none;align=center;verticalAlign=middle;whiteSpace=wrap;rounded=0;" vertex="1" parent="1">
            <mxGeometry x="580" y="931" width="60" height="30" as="geometry" />
          </mxCell>
        </object>
        <object label="dataVect(9:0)" placeholders="1" id="txMc73hx2d9rrWc1YmoP-26">
          <mxCell style="text;html=1;strokeColor=none;fillColor=none;align=center;verticalAlign=middle;whiteSpace=wrap;rounded=0;" vertex="1" parent="1">
            <mxGeometry x="580" y="1042" width="60" height="30" as="geometry" />
          </mxCell>
        </object>
        <mxCell id="txMc73hx2d9rrWc1YmoP-31" style="edgeStyle=orthogonalEdgeStyle;rounded=0;orthogonalLoop=1;jettySize=auto;html=1;exitX=1;exitY=0.5;exitDx=0;exitDy=0;entryX=0;entryY=0.5;entryDx=0;entryDy=0;" edge="1" parent="1" source="txMc73hx2d9rrWc1YmoP-27" target="Q69YeQZvq4Ri28R2H-Wj-46">
          <mxGeometry relative="1" as="geometry">
            <Array as="points">
              <mxPoint x="380" y="979" />
              <mxPoint x="380" y="1119" />
            </Array>
          </mxGeometry>
        </mxCell>
        <object label="regld(8:0)" placeholders="1" id="txMc73hx2d9rrWc1YmoP-39">
          <mxCell style="text;html=1;strokeColor=none;fillColor=none;align=center;verticalAlign=middle;whiteSpace=wrap;rounded=0;" vertex="1" parent="1">
            <mxGeometry x="225" y="955" width="60" height="30" as="geometry" />
          </mxCell>
        </object>
        <object label="regld(8)" placeholders="1" id="txMc73hx2d9rrWc1YmoP-40">
          <mxCell style="text;html=1;strokeColor=none;fillColor=none;align=center;verticalAlign=middle;whiteSpace=wrap;rounded=0;" vertex="1" parent="1">
            <mxGeometry x="590" y="1096" width="60" height="30" as="geometry" />
          </mxCell>
        </object>
        <object label="regld(8)" placeholders="1" id="txMc73hx2d9rrWc1YmoP-41">
          <mxCell style="text;html=1;strokeColor=none;fillColor=none;align=center;verticalAlign=middle;whiteSpace=wrap;rounded=0;" vertex="1" parent="1">
            <mxGeometry x="590" y="986" width="60" height="30" as="geometry" />
          </mxCell>
        </object>
        <object label="regld(8)" placeholders="1" id="txMc73hx2d9rrWc1YmoP-42">
          <mxCell style="text;html=1;strokeColor=none;fillColor=none;align=center;verticalAlign=middle;whiteSpace=wrap;rounded=0;" vertex="1" parent="1">
            <mxGeometry x="590" y="875" width="60" height="30" as="geometry" />
          </mxCell>
        </object>
        <object label="regld(8)" placeholders="1" id="txMc73hx2d9rrWc1YmoP-43">
          <mxCell style="text;html=1;strokeColor=none;fillColor=none;align=center;verticalAlign=middle;whiteSpace=wrap;rounded=0;" vertex="1" parent="1">
            <mxGeometry x="590" y="765" width="60" height="30" as="geometry" />
          </mxCell>
        </object>
        <object label="regld(8)" placeholders="1" id="txMc73hx2d9rrWc1YmoP-44">
          <mxCell style="text;html=1;strokeColor=none;fillColor=none;align=center;verticalAlign=middle;whiteSpace=wrap;rounded=0;" vertex="1" parent="1">
            <mxGeometry x="590" y="655" width="60" height="30" as="geometry" />
          </mxCell>
        </object>
        <object label="regld(8)" placeholders="1" id="txMc73hx2d9rrWc1YmoP-45">
          <mxCell style="text;html=1;strokeColor=none;fillColor=none;align=center;verticalAlign=middle;whiteSpace=wrap;rounded=0;" vertex="1" parent="1">
            <mxGeometry x="590" y="545" width="60" height="30" as="geometry" />
          </mxCell>
        </object>
        <object label="regld(8)" placeholders="1" id="txMc73hx2d9rrWc1YmoP-46">
          <mxCell style="text;html=1;strokeColor=none;fillColor=none;align=center;verticalAlign=middle;whiteSpace=wrap;rounded=0;" vertex="1" parent="1">
            <mxGeometry x="590" y="434" width="60" height="30" as="geometry" />
          </mxCell>
        </object>
        <object label="regld(8)" placeholders="1" id="txMc73hx2d9rrWc1YmoP-47">
          <mxCell style="text;html=1;strokeColor=none;fillColor=none;align=center;verticalAlign=middle;whiteSpace=wrap;rounded=0;" vertex="1" parent="1">
            <mxGeometry x="590" y="324" width="60" height="30" as="geometry" />
          </mxCell>
        </object>
        <object label="regld(8)" placeholders="1" id="txMc73hx2d9rrWc1YmoP-48">
          <mxCell style="text;html=1;strokeColor=none;fillColor=none;align=center;verticalAlign=middle;whiteSpace=wrap;rounded=0;" vertex="1" parent="1">
            <mxGeometry x="590" y="215" width="60" height="30" as="geometry" />
          </mxCell>
        </object>
        <mxCell id="txMc73hx2d9rrWc1YmoP-49" style="edgeStyle=orthogonalEdgeStyle;rounded=0;orthogonalLoop=1;jettySize=auto;html=1;exitX=1;exitY=0.5;exitDx=0;exitDy=0;entryX=0;entryY=0.5;entryDx=0;entryDy=0;" edge="1" parent="1" source="Q69YeQZvq4Ri28R2H-Wj-9" target="F2LIbIG9BlmV1XGxBTNu-11">
          <mxGeometry relative="1" as="geometry">
            <Array as="points">
              <mxPoint x="360" y="419" />
              <mxPoint x="360" y="187" />
            </Array>
          </mxGeometry>
        </mxCell>
        <mxCell id="txMc73hx2d9rrWc1YmoP-60" style="edgeStyle=orthogonalEdgeStyle;rounded=0;orthogonalLoop=1;jettySize=auto;html=1;exitX=1;exitY=0.5;exitDx=0;exitDy=0;entryX=1;entryY=0.25;entryDx=0;entryDy=0;" edge="1" parent="1" source="txMc73hx2d9rrWc1YmoP-59" target="Q69YeQZvq4Ri28R2H-Wj-52">
          <mxGeometry relative="1" as="geometry">
            <Array as="points">
              <mxPoint x="310" y="869" />
              <mxPoint x="310" y="527" />
            </Array>
          </mxGeometry>
        </mxCell>
        <object label="addrFace(%FaceAddrW-1%:0)" placeholders="1" id="txMc73hx2d9rrWc1YmoP-61">
          <mxCell style="text;html=1;strokeColor=none;fillColor=none;align=center;verticalAlign=middle;whiteSpace=wrap;rounded=0;" vertex="1" parent="1">
            <mxGeometry x="234" y="847" width="60" height="30" as="geometry" />
          </mxCell>
        </object>
        <object label="addrFace(%FaceAddrW-1%:0)" placeholders="1" id="txMc73hx2d9rrWc1YmoP-62">
          <mxCell style="text;html=1;strokeColor=none;fillColor=none;align=center;verticalAlign=middle;whiteSpace=wrap;rounded=0;" vertex="1" parent="1">
            <mxGeometry x="242" y="505" width="60" height="30" as="geometry" />
          </mxCell>
        </object>
        <mxCell id="txMc73hx2d9rrWc1YmoP-64" style="edgeStyle=orthogonalEdgeStyle;rounded=0;orthogonalLoop=1;jettySize=auto;html=1;exitX=1;exitY=0.5;exitDx=0;exitDy=0;entryX=1;entryY=0.5;entryDx=0;entryDy=0;" edge="1" parent="1" source="Q69YeQZvq4Ri28R2H-Wj-56" target="txMc73hx2d9rrWc1YmoP-6">
          <mxGeometry relative="1" as="geometry">
            <Array as="points">
              <mxPoint x="290" y="619" />
              <mxPoint x="290" y="784" />
            </Array>
          </mxGeometry>
        </mxCell>
        <object label="dataFace(7:0)" placeholders="1" id="txMc73hx2d9rrWc1YmoP-65">
          <mxCell style="html=1;align=left;spacingLeft=4;verticalAlign=top;strokeColor=none;fillColor=none;whiteSpace=wrap;rotation=-90;" vertex="1" parent="1">
            <mxGeometry x="235" y="687" width="90" height="25" as="geometry" />
          </mxCell>
        </object>
      </root>
    </mxGraphModel>
  </diagram>
</mxfile>
